<?xml version="1.0" encoding="UTF-8"?>
<svg width="106px" height="30px" viewBox="0 0 106 30" version="1.1" xmlns="http://www.w3.org/2000/svg" xmlns:xlink="http://www.w3.org/1999/xlink">
    <!-- Generator: Sketch 46 (44423) - http://www.bohemiancoding.com/sketch -->
    <title>VPSAG Copy</title>
    <desc>Created with Sketch.</desc>
    <defs></defs>
    <g id="Page-1" stroke="none" stroke-width="1" fill="none" fill-rule="evenodd">
        <g id="logo" transform="translate(-147.000000, -216.000000)" fill="#288FEB">
            <path d="M148.171875,216.078125 C148.940108,216.078125 149.565102,216.989574 150.046875,218.8125 C150.138021,218.877604 152.091127,223.747347 155.90625,233.421875 L156.0625,233.421875 C160.398459,222.380153 162.690103,216.729168 162.9375,216.46875 C163.250002,216.260416 163.536457,216.15625 163.796875,216.15625 C164.578129,216.247396 164.96875,216.638017 164.96875,217.328125 C164.96875,217.523438 162.546899,223.66921 157.703125,235.765625 C157.286456,237.171882 156.739587,237.875 156.0625,237.875 L155.90625,237.875 C155.203121,237.875 154.682293,237.197923 154.34375,235.84375 C149.447892,223.786398 147,217.614585 147,217.328125 L147,217.09375 C147,216.546872 147.390621,216.208334 148.171875,216.078125 Z M180.955209,216 L181.736459,216 C185.213039,216 188.155718,217.66665 190.564584,221 C191.710423,222.861988 192.283334,224.710928 192.283334,226.546875 L192.283334,227.328125 C192.283334,230.713559 190.642725,233.656238 187.361459,236.15625 C185.356241,237.302089 183.481259,237.875 181.736459,237.875 L180.955209,237.875 C177.93436,237.875 175.200013,236.520847 172.752084,233.8125 L172.752084,244.125 C172.660938,244.906254 172.270317,245.296875 171.580209,245.296875 C170.798955,245.205729 170.408334,244.815108 170.408334,244.125 L170.408334,226.703125 C170.408334,223.278629 171.918735,220.388033 174.939584,218.03125 C176.931781,216.677077 178.93697,216 180.955209,216 Z M172.752084,227.015625 C172.752084,229.98439 174.184361,232.432282 177.048959,234.359375 C178.52032,235.140629 179.952598,235.53125 181.345834,235.53125 C184.601059,235.53125 187.153116,233.942724 189.002084,230.765625 C189.627087,229.476556 189.939584,228.174486 189.939584,226.859375 C189.939584,223.812485 188.455224,221.338551 185.486459,219.4375 C184.106244,218.70833 182.700008,218.34375 181.267709,218.34375 C178.064568,218.34375 175.538551,219.932276 173.689584,223.109375 C173.064581,224.385423 172.752084,225.687493 172.752084,227.015625 Z M204.890887,216 L210.359637,216 C212.29975,216 214.070566,216.54687 215.672137,217.640625 C215.828387,217.901043 215.906512,218.109374 215.906512,218.265625 L215.906512,218.65625 C215.906512,219.151044 215.567973,219.463541 214.890887,219.59375 L214.734637,219.59375 C214.565365,219.59375 213.73204,219.281253 212.234637,218.65625 C211.388278,218.447916 210.398705,218.34375 209.265887,218.34375 L206.375262,218.34375 C204.213792,218.34375 202.833598,218.838537 202.234637,219.828125 C201.713801,220.518233 201.453387,221.117185 201.453387,221.625 L201.453387,222.484375 C201.453387,223.669277 202.286712,224.684892 203.953387,225.53125 C204.461202,225.687501 205.138278,225.765625 205.984637,225.765625 L211.062762,225.765625 C213.692983,225.765625 215.594006,227.197902 216.765887,230.0625 C216.922137,230.609378 217.000262,231.156247 217.000262,231.703125 L217.000262,231.9375 C217.000262,234.645847 215.48986,236.572911 212.469012,237.71875 C211.883071,237.822917 211.466409,237.875 211.219012,237.875 L200.281512,237.875 C199.500258,237.783854 199.109637,237.393233 199.109637,236.703125 C199.200783,235.921871 199.591404,235.53125 200.281512,235.53125 L210.359637,235.53125 C212.351834,235.53125 213.705987,234.723966 214.422137,233.109375 C214.578387,232.419267 214.656512,231.976563 214.656512,231.78125 C214.656512,230.062491 213.640897,228.864587 211.609637,228.1875 C211.166926,228.135416 210.802346,228.109375 210.515887,228.109375 L204.890887,228.109375 C202.195561,228.109375 200.294538,226.625015 199.187762,223.65625 C199.083594,223.161456 199.031512,222.770835 199.031512,222.484375 L199.031512,221.78125 C199.031512,219.229154 200.437747,217.380214 203.250262,216.234375 C203.797139,216.078124 204.344009,216 204.890887,216 Z M228.08047,224.75 L228.45547,224.75 C230.26798,224.75 231.908588,225.562492 233.377345,227.1875 L233.377345,225.453125 C233.432033,224.984373 233.666406,224.75 234.08047,224.75 C234.549223,224.804688 234.783595,225.03906 234.783595,225.453125 L234.783595,237.125 C234.728908,237.593752 234.494535,237.828125 234.08047,237.828125 C233.611718,237.773437 233.377345,237.539065 233.377345,237.125 L233.377345,235.4375 C231.932026,237.062508 230.244543,237.875 228.314845,237.875 L227.98672,237.875 C225.908585,237.875 224.142978,236.87501 222.689845,234.875 C222.002342,233.757807 221.658595,232.648443 221.658595,231.546875 L221.658595,231.171875 C221.658595,228.835926 222.799209,226.94532 225.08047,225.5 C226.103913,224.999998 227.103903,224.75 228.08047,224.75 Z M223.064845,231.359375 C223.064845,233.187509 223.955462,234.671869 225.73672,235.8125 C226.56485,236.250002 227.408591,236.46875 228.26797,236.46875 C230.049229,236.46875 231.517965,235.609384 232.67422,233.890625 C233.142973,233.007808 233.377345,232.148442 233.377345,231.3125 C233.377345,229.984368 232.87735,228.781255 231.877345,227.703125 C230.799215,226.67187 229.564852,226.15625 228.17422,226.15625 C226.252336,226.15625 224.736726,227.109365 223.627345,229.015625 C223.252344,229.781254 223.064845,230.562496 223.064845,231.359375 Z M246.148961,224.75 L246.617711,224.75 C248.844284,224.75 250.672391,225.843739 252.102086,228.03125 C252.664588,229.085943 252.945836,230.101558 252.945836,231.078125 L252.945836,236 C252.945836,238.179698 251.867721,240.007805 249.711461,241.484375 C248.586455,242.046878 247.555215,242.328125 246.617711,242.328125 L246.430211,242.328125 C245.961458,242.265625 245.727086,242.062502 245.727086,241.71875 L245.727086,241.53125 C245.727086,241.093748 246.164581,240.875 247.039586,240.875 C248.055216,240.710937 248.898957,240.33594 249.570836,239.75 C250.883342,238.726557 251.539586,237.289072 251.539586,235.4375 C250.094266,237.062508 248.453657,237.875 246.617711,237.875 L246.148961,237.875 C243.969262,237.875 242.141155,236.796886 240.664586,234.640625 C240.102083,233.523432 239.820836,232.492192 239.820836,231.546875 L239.820836,231.078125 C239.820836,228.898427 240.89895,227.07032 243.055211,225.59375 C244.172404,225.031247 245.203643,224.75 246.148961,224.75 Z M241.227086,231.3125 C241.227086,233.195322 242.148951,234.710932 243.992711,235.859375 C244.836465,236.265627 245.617707,236.46875 246.336461,236.46875 C248.375533,236.46875 249.953643,235.453135 251.070836,233.421875 C251.383337,232.640621 251.539586,231.937503 251.539586,231.3125 C251.539586,229.34374 250.55522,227.796881 248.586461,226.671875 C247.805207,226.328123 247.070839,226.15625 246.383336,226.15625 C244.375513,226.15625 242.813029,227.171865 241.695836,229.203125 C241.383334,229.953129 241.227086,230.656247 241.227086,231.3125 Z" id="VPSAG-Copy"></path>
        </g>
    </g>
</svg>