<?xml version="1.0" encoding="UTF-8"?>
<svg width="107px" height="30px" viewBox="0 0 107 30" version="1.1" xmlns="http://www.w3.org/2000/svg" xmlns:xlink="http://www.w3.org/1999/xlink">
    <!-- Generator: Sketch 46 (44423) - http://www.bohemiancoding.com/sketch -->
    <title>VPSAG</title>
    <desc>Created with Sketch.</desc>
    <defs></defs>
    <g id="Page-1" stroke="none" stroke-width="1" fill="none" fill-rule="evenodd">
        <g id="logo" transform="translate(-137.000000, -22.000000)" fill="#FFFFFF">
            <path d="M139.125,22.203125 C139.893233,22.203125 140.518227,23.1145742 141,24.9375 C141.091146,25.0026045 143.044252,29.8723475 146.859375,39.546875 L147.015625,39.546875 C151.351584,28.5051531 153.643228,22.854168 153.890625,22.59375 C154.203127,22.3854156 154.489582,22.28125 154.75,22.28125 C155.531254,22.3723963 155.921875,22.7630174 155.921875,23.453125 C155.921875,23.6484385 153.500024,29.7942104 148.65625,41.890625 C148.239581,43.296882 147.692712,44 147.015625,44 L146.859375,44 C146.156246,44 145.635418,43.3229234 145.296875,41.96875 C140.401017,29.911398 137.953125,23.7395848 137.953125,23.453125 L137.953125,23.21875 C137.953125,22.6718723 138.343746,22.333334 139.125,22.203125 Z M171.908334,22.125 L172.689584,22.125 C176.166164,22.125 179.108843,23.79165 181.517709,27.125 C182.663548,28.9869885 183.236459,30.8359283 183.236459,32.671875 L183.236459,33.453125 C183.236459,36.8385586 181.59585,39.7812375 178.314584,42.28125 C176.309366,43.4270891 174.434384,44 172.689584,44 L171.908334,44 C168.887485,44 166.153138,42.6458469 163.705209,39.9375 L163.705209,50.25 C163.614063,51.0312539 163.223442,51.421875 162.533334,51.421875 C161.75208,51.3307287 161.361459,50.9401076 161.361459,50.25 L161.361459,32.828125 C161.361459,29.4036287 162.87186,26.5130326 165.892709,24.15625 C167.884906,22.8020766 169.890095,22.125 171.908334,22.125 Z M163.705209,33.140625 C163.705209,36.1093898 165.137486,38.557282 168.002084,40.484375 C169.473445,41.2656289 170.905723,41.65625 172.298959,41.65625 C175.554184,41.65625 178.106241,40.0677242 179.955209,36.890625 C180.580212,35.6015561 180.892709,34.2994857 180.892709,32.984375 C180.892709,29.9374848 179.408349,27.4635512 176.439584,25.5625 C175.059369,24.8333297 173.653133,24.46875 172.220834,24.46875 C169.017693,24.46875 166.491676,26.0572758 164.642709,29.234375 C164.017706,30.510423 163.705209,31.8124934 163.705209,33.140625 Z M195.844012,22.125 L201.312762,22.125 C203.252875,22.125 205.023691,22.6718695 206.625262,23.765625 C206.781512,24.026043 206.859637,24.2343742 206.859637,24.390625 L206.859637,24.78125 C206.859637,25.2760441 206.521098,25.588541 205.844012,25.71875 L205.687762,25.71875 C205.51849,25.71875 204.685165,25.4062531 203.187762,24.78125 C202.341403,24.5729156 201.35183,24.46875 200.219012,24.46875 L197.328387,24.46875 C195.166917,24.46875 193.786723,24.9635367 193.187762,25.953125 C192.666926,26.6432326 192.406512,27.242185 192.406512,27.75 L192.406512,28.609375 C192.406512,29.7942768 193.239837,30.8098916 194.906512,31.65625 C195.414327,31.8125008 196.091403,31.890625 196.937762,31.890625 L202.015887,31.890625 C204.646108,31.890625 206.547131,33.3229023 207.719012,36.1875 C207.875262,36.7343777 207.953387,37.2812473 207.953387,37.828125 L207.953387,38.0625 C207.953387,40.7708469 206.442985,42.6979109 203.422137,43.84375 C202.836196,43.9479172 202.419534,44 202.172137,44 L191.234637,44 C190.453383,43.9088537 190.062762,43.5182326 190.062762,42.828125 C190.153908,42.0468711 190.544529,41.65625 191.234637,41.65625 L201.312762,41.65625 C203.304959,41.65625 204.659112,40.8489664 205.375262,39.234375 C205.531512,38.5442674 205.609637,38.1015635 205.609637,37.90625 C205.609637,36.1874914 204.594022,34.9895867 202.562762,34.3125 C202.120051,34.2604164 201.755471,34.234375 201.469012,34.234375 L195.844012,34.234375 C193.148686,34.234375 191.247663,32.7500148 190.140887,29.78125 C190.036719,29.2864559 189.984637,28.8958348 189.984637,28.609375 L189.984637,27.90625 C189.984637,25.3541539 191.390872,23.5052141 194.203387,22.359375 C194.750264,22.2031242 195.297134,22.125 195.844012,22.125 Z M219.033595,30.875 L219.408595,30.875 C221.221105,30.875 222.861713,31.6874919 224.33047,33.3125 L224.33047,31.578125 C224.385158,31.1093727 224.619531,30.875 225.033595,30.875 C225.502348,30.9296878 225.73672,31.1640604 225.73672,31.578125 L225.73672,43.25 C225.682033,43.7187523 225.44766,43.953125 225.033595,43.953125 C224.564843,43.8984372 224.33047,43.6640646 224.33047,43.25 L224.33047,41.5625 C222.885151,43.1875081 221.197668,44 219.26797,44 L218.939845,44 C216.86171,44 215.096103,43.00001 213.64297,41 C212.955467,39.8828069 212.61172,38.773443 212.61172,37.671875 L212.61172,37.296875 C212.61172,34.9609258 213.752334,33.0703197 216.033595,31.625 C217.057038,31.1249975 218.057028,30.875 219.033595,30.875 Z M214.01797,37.484375 C214.01797,39.3125091 214.908587,40.7968693 216.689845,41.9375 C217.517975,42.3750022 218.361716,42.59375 219.221095,42.59375 C221.002354,42.59375 222.47109,41.7343836 223.627345,40.015625 C224.096098,39.1328081 224.33047,38.2734417 224.33047,37.4375 C224.33047,36.1093684 223.830475,34.9062554 222.83047,33.828125 C221.75234,32.7968698 220.517977,32.28125 219.127345,32.28125 C217.205461,32.28125 215.689851,33.2343655 214.58047,35.140625 C214.205469,35.9062538 214.01797,36.687496 214.01797,37.484375 Z M237.102086,30.875 L237.570836,30.875 C239.797409,30.875 241.625516,31.9687391 243.055211,34.15625 C243.617713,35.2109428 243.898961,36.2265576 243.898961,37.203125 L243.898961,42.125 C243.898961,44.3046984 242.820846,46.1328051 240.664586,47.609375 C239.53958,48.1718778 238.50834,48.453125 237.570836,48.453125 L237.383336,48.453125 C236.914583,48.3906247 236.680211,48.1875017 236.680211,47.84375 L236.680211,47.65625 C236.680211,47.2187478 237.117706,47 237.992711,47 C239.008341,46.8359367 239.852082,46.4609404 240.523961,45.875 C241.836467,44.8515574 242.492711,43.4140718 242.492711,41.5625 C241.047391,43.1875081 239.406782,44 237.570836,44 L237.102086,44 C234.922387,44 233.09428,42.9218858 231.617711,40.765625 C231.055208,39.6484319 230.773961,38.6171922 230.773961,37.671875 L230.773961,37.203125 C230.773961,35.0234266 231.852075,33.1953199 234.008336,31.71875 C235.125529,31.1562472 236.156768,30.875 237.102086,30.875 Z M232.180211,37.4375 C232.180211,39.3203219 233.102076,40.8359318 234.945836,41.984375 C235.78959,42.390627 236.570832,42.59375 237.289586,42.59375 C239.328658,42.59375 240.906768,41.5781352 242.023961,39.546875 C242.336462,38.7656211 242.492711,38.0625031 242.492711,37.4375 C242.492711,35.4687402 241.508345,33.9218806 239.539586,32.796875 C238.758332,32.4531233 238.023964,32.28125 237.336461,32.28125 C235.328638,32.28125 233.766154,33.2968648 232.648961,35.328125 C232.336459,36.0781288 232.180211,36.7812467 232.180211,37.4375 Z" id="VPSAG"></path>
        </g>
    </g>
</svg>