<?xml version="1.0" standalone="no"?>
<!DOCTYPE svg PUBLIC "-//W3C//DTD SVG 20010904//EN"
 "http://www.w3.org/TR/2001/REC-SVG-20010904/DTD/svg10.dtd">
<svg version="1.0" xmlns="http://www.w3.org/2000/svg"
 width="296.000000pt" height="48.000000pt" viewBox="0 0 296.000000 48.000000"
 preserveAspectRatio="xMidYMid meet">
<metadata>
Created by potrace 1.10, written by Peter Selinger 2001-2011
</metadata>
<g transform="translate(0.000000,48.000000) scale(0.100000,-0.100000)"
fill="#000000" stroke="none">
<path d="M1968 300 l-3 -180 23 0 c20 0 22 5 22 49 0 80 20 84 71 12 31 -45
49 -61 66 -61 13 0 23 2 23 5 0 2 -24 36 -54 76 l-53 72 48 51 c44 47 46 51
26 55 -16 2 -35 -12 -74 -55 l-53 -57 0 106 c0 100 -1 107 -20 107 -18 0 -19
-9 -22 -180z"/>
<path d="M83 445 c-34 -14 -53 -41 -53 -74 0 -34 42 -69 115 -98 62 -25 70
-31 73 -58 5 -37 -19 -55 -71 -55 -48 0 -77 15 -77 40 0 15 -7 20 -25 20 -29
0 -32 -16 -9 -49 50 -71 197 -64 223 10 18 51 -11 94 -76 117 -82 30 -94 36
-104 54 -8 14 -6 26 6 44 29 44 135 25 135 -24 0 -7 11 -12 25 -12 24 0 25 1
12 33 -23 58 -105 82 -174 52z"/>
<path d="M1390 290 l0 -170 68 0 c87 0 129 21 160 80 44 86 16 203 -58 242
-24 12 -56 18 -102 18 l-68 0 0 -170z m170 105 c29 -31 42 -94 31 -147 -13
-56 -50 -88 -102 -88 -21 0 -42 0 -45 0 -4 0 -8 235 -4 263 0 1 22 0 49 -1 36
-3 55 -10 71 -27z"/>
<path d="M368 364 c-36 -19 -58 -63 -58 -113 0 -57 15 -88 52 -111 42 -25 84
-25 126 0 28 17 32 23 21 36 -10 12 -14 12 -28 1 -24 -21 -60 -27 -86 -15 -21
9 -45 46 -45 68 0 6 38 10 85 10 83 0 85 1 85 24 0 90 -77 141 -152 100z m87
-39 c43 -42 34 -55 -40 -55 -39 0 -65 4 -65 11 0 21 22 50 43 59 32 13 36 12
62 -15z"/>
<path d="M570 250 l0 -130 26 0 25 0 -2 96 c-2 85 0 98 16 110 10 8 28 14 40
14 14 0 21 7 22 20 2 25 -38 28 -57 5 -7 -8 -17 -15 -22 -15 -6 0 -8 7 -4 15
4 11 -1 15 -19 15 l-25 0 0 -130z"/>
<path d="M722 368 c3 -7 22 -64 44 -127 35 -102 54 -134 70 -118 3 3 23 54 44
114 21 59 41 116 45 126 6 13 2 17 -19 17 -18 0 -26 -6 -27 -17 0 -10 -13 -56
-28 -103 l-27 -85 -32 103 c-28 86 -36 102 -53 102 -13 0 -19 -5 -17 -12z"/>
<path d="M1018 364 c-36 -19 -58 -63 -58 -113 0 -57 15 -88 52 -111 42 -25 84
-25 126 0 28 17 32 23 21 36 -10 12 -14 12 -28 1 -24 -21 -60 -27 -86 -15 -21
9 -45 46 -45 68 0 6 38 10 85 10 83 0 85 1 85 24 0 90 -77 141 -152 100z m87
-39 c43 -42 34 -55 -40 -55 -39 0 -65 4 -65 11 0 21 22 50 43 59 32 13 36 12
62 -15z"/>
<path d="M1220 250 l0 -130 26 0 25 0 -2 96 c-2 85 0 98 16 110 10 8 29 14 42
14 16 0 23 6 23 20 0 24 -41 28 -60 5 -7 -8 -17 -15 -22 -15 -6 0 -8 7 -4 15
4 11 -1 15 -19 15 l-25 0 0 -130z"/>
<path d="M1702 269 c3 -102 5 -112 27 -130 28 -23 79 -25 109 -3 20 14 22 14
22 0 0 -9 9 -16 20 -16 19 0 20 7 20 130 0 128 0 130 -22 130 -22 0 -23 -2
-20 -91 4 -105 -8 -129 -64 -129 -45 0 -54 21 -54 129 0 86 -1 91 -21 91 -20
0 -21 -4 -17 -111z"/>
<path d="M2243 360 c-18 -11 -33 -27 -33 -35 0 -19 36 -20 43 -1 16 40 107 19
107 -24 0 -17 -7 -20 -42 -20 -54 0 -105 -30 -114 -66 -16 -65 59 -114 124
-82 26 13 32 14 36 2 3 -8 13 -14 23 -14 16 0 18 9 15 92 -4 122 -7 135 -42
153 -39 20 -79 19 -117 -5z m117 -137 c0 -38 -27 -63 -67 -63 -26 0 -36 5 -45
26 -11 23 -10 29 11 45 14 11 39 19 62 19 36 0 39 -2 39 -27z"/>
<path d="M2515 369 c-22 -13 -45 -39 -45 -51 0 -15 32 -8 58 13 40 31 91 13
92 -33 0 -14 -8 -18 -35 -18 -53 0 -103 -25 -115 -56 -13 -34 -5 -58 27 -84
31 -24 70 -26 101 -4 20 14 23 14 28 0 3 -9 15 -16 26 -16 16 0 19 5 14 23 -3
12 -6 59 -6 103 0 101 -14 124 -80 130 -25 3 -54 -1 -65 -7z m105 -147 c0 -39
-30 -64 -70 -60 -23 2 -35 10 -41 26 -13 33 20 62 71 62 37 0 40 -2 40 -28z"/>
<path d="M2730 250 c0 -128 0 -130 23 -130 21 0 22 2 19 91 -4 105 8 129 64
129 45 0 54 -21 54 -129 0 -86 1 -91 21 -91 20 0 21 4 17 111 -3 102 -5 112
-27 130 -30 25 -72 24 -105 -2 l-26 -20 0 20 c0 14 -6 21 -20 21 -19 0 -20 -7
-20 -130z"/>
</g>
</svg>
