<svg version="1" xmlns="http://www.w3.org/2000/svg" width="346.667" height="346.667" viewBox="0 0 260.000000 260.000000"><path d="M46 106.5c0 49.3-.1 52.5-1.7 52.6-1 .1-4.8 0-8.4 0-4.6-.1-6.8.3-7.1 1.1-.2.7-.4 6.5-.4 12.8l.1 11.5 8.8.3 8.7.3v10.4c0 7.7.3 10.5 1.3 10.6.6 0 35 .1 76.2.2l75 .1.5-38.4.5-38.5 10.3.1c6.9.1 10.2-.2 10.3-1 .3-3.5.4-29.3.1-30.2-.2-.8-3.8-1.1-10.8-1l-10.4.1V54H46v52.5z"/><path d="M210 75.9v10.9l3.3.3c1.7.2 6.8.2 11.2-.1l8-.5v-21l-11.3-.3-11.2-.3v11zM231.4 110c0 4.9.2 9.1.5 9.1.3.1 4.5.2 9.4.3l8.7.1V101h-18.6v9zM11.8 130.8c-1.6.3-1.8 1.6-1.8 9.3v8.9h18.6v-9c0-7.4-.3-9-1.6-9.1-4.4-.3-13.7-.4-15.2-.1z"/></svg>